<svg xmlns="http://www.w3.org/2000/svg" viewBox="0 0 61.41 61.45"><defs><style>.cls-1{fill:#0f303f;}.cls-2{fill:#2c5871;}.cls-3{fill:#fff;}.cls-4{fill:#366b8a;}</style></defs><g id="Слой_2" data-name="Слой 2"><g id="Layer_1" data-name="Layer 1"><path class="cls-1" d="M52.82,0H30.71V61.45H52.82a8.6,8.6,0,0,0,8.59-8.59V8.59A8.6,8.6,0,0,0,52.82,0Z"/><path class="cls-2" d="M8.59,0A8.6,8.6,0,0,0,0,8.59V52.86a8.6,8.6,0,0,0,8.59,8.59H30.71V0Z"/><path class="cls-3" d="M52.82,57.58H8.59a4.73,4.73,0,0,1-4.73-4.72V8.59A4.73,4.73,0,0,1,8.59,3.87H52.82a4.73,4.73,0,0,1,4.73,4.72V52.86A4.73,4.73,0,0,1,52.82,57.58ZM8.59,4.73A3.87,3.87,0,0,0,4.72,8.59V52.86a3.87,3.87,0,0,0,3.87,3.86H52.82a3.86,3.86,0,0,0,3.87-3.86V8.59a3.86,3.86,0,0,0-3.87-3.86Z"/><path class="cls-3" d="M7.13,41.2V9.46A2.57,2.57,0,0,1,9.71,6.88h42a2.57,2.57,0,0,1,2.57,2.58V41.2Z"/><path d="M31.83,36.29H29.58l-.47,1.5H27.65L30,30.84h1.42l2.34,7H32.3ZM29.92,35.2h1.57l-.77-2.45h0Z"/><path d="M9.87,21.6a.43.43,0,0,1-.36-.21.42.42,0,0,1,.14-.59,42.55,42.55,0,0,1,42.17-1.31.43.43,0,0,1,.18.58.44.44,0,0,1-.59.18A41.69,41.69,0,0,0,10.1,21.53.39.39,0,0,1,9.87,21.6Z"/><path d="M13.49,14.39a1.49,1.49,0,0,1-.32,1,1.22,1.22,0,0,1-1.75,0,1.49,1.49,0,0,1-.33-1V13.28a1.53,1.53,0,0,1,.32-1,1.11,1.11,0,0,1,.88-.38,1.13,1.13,0,0,1,.88.38,1.53,1.53,0,0,1,.32,1ZM13,13.17a1,1,0,0,0-.18-.64.66.66,0,0,0-1,0,1,1,0,0,0-.18.64V14.5a1,1,0,0,0,.18.64.66.66,0,0,0,1,0A1,1,0,0,0,13,14.5Z"/><path d="M22,13.63H19.65v-.35l1.19-1.41a4.22,4.22,0,0,0,.43-.61,1.14,1.14,0,0,0,.11-.46.61.61,0,0,0-.15-.43.58.58,0,0,0-.43-.17.64.64,0,0,0-.51.21.77.77,0,0,0-.17.51h-.49v0a1,1,0,0,1,.31-.78,1.15,1.15,0,0,1,.87-.32,1.08,1.08,0,0,1,.8.28,1,1,0,0,1,.29.72,1.09,1.09,0,0,1-.17.59,4.55,4.55,0,0,1-.5.71l-.95,1.12H22Z"/><path d="M40.65,9.35a2.3,2.3,0,0,1,.45.05,2.22,2.22,0,0,1,.36.11l-.11.39A1.86,1.86,0,0,0,41,9.8a1.51,1.51,0,0,0-.39,0,.67.67,0,0,0-.57.3,1.26,1.26,0,0,0-.23.77v.29a1.25,1.25,0,0,1,.38-.25,1.19,1.19,0,0,1,.47-.09,1,1,0,0,1,.77.33,1.27,1.27,0,0,1,.28.86,1.28,1.28,0,0,1-.32.93,1.09,1.09,0,0,1-.85.35,1.14,1.14,0,0,1-.88-.4,1.57,1.57,0,0,1-.35-1.09v-.87a1.61,1.61,0,0,1,.37-1.1A1.2,1.2,0,0,1,40.65,9.35Zm-.12,1.81a.76.76,0,0,0-.41.11.78.78,0,0,0-.27.27v.27a1.25,1.25,0,0,0,.21.76.64.64,0,0,0,.52.28.58.58,0,0,0,.49-.25,1.09,1.09,0,0,0,.17-.63.85.85,0,0,0-.19-.59A.65.65,0,0,0,40.53,11.16Z"/><path d="M50.19,12.05a.85.85,0,0,1-.17.52,1,1,0,0,1-.44.34,1,1,0,0,1,.52.36.86.86,0,0,1,.19.56,1,1,0,0,1-.34.81,1.27,1.27,0,0,1-.86.28,1.41,1.41,0,0,1-.91-.28,1,1,0,0,1-.35-.81.87.87,0,0,1,.2-.56,1,1,0,0,1,.54-.36,1,1,0,0,1-.46-.34.79.79,0,0,1-.17-.52.92.92,0,0,1,.32-.76,1.26,1.26,0,0,1,.82-.26,1.17,1.17,0,0,1,.8.27A.91.91,0,0,1,50.19,12.05Zm-.41,1.77a.66.66,0,0,0-.2-.51.69.69,0,0,0-.5-.2.76.76,0,0,0-.53.2.72.72,0,0,0,0,1,.76.76,0,0,0,.54.19.67.67,0,0,0,.69-.7Zm-.1-1.76a.64.64,0,0,0-.17-.45.58.58,0,0,0-.43-.18.64.64,0,0,0-.45.17.62.62,0,0,0-.18.46.64.64,0,0,0,.18.47.62.62,0,0,0,.46.18.54.54,0,0,0,.42-.18A.68.68,0,0,0,49.68,12.06Z"/><path d="M31.2,11.36h.52v.4H31.2v.87h-.51v-.87H29.07v-.29l1.59-2.62h.54Zm-1.58,0h1.07V9.59h0l-.05.12Z"/><path d="M24.59,41.17,12.11,21.83a.86.86,0,0,0-1.44.94L22.56,41.19Z"/><path class="cls-4" d="M34.18,49.13a3.44,3.44,0,1,1-3.44-3.44A3.44,3.44,0,0,1,34.18,49.13Z"/><path class="cls-1" d="M31.09,48.72h1.54v.69H31.09v1.77h-.76V49.41H28.78v-.69h1.55V47.09h.76Z"/></g></g></svg>