<?xml version="1.0" standalone="no"?>
<!DOCTYPE svg PUBLIC "-//W3C//DTD SVG 20010904//EN"
 "http://www.w3.org/TR/2001/REC-SVG-20010904/DTD/svg10.dtd">
<svg version="1.0" xmlns="http://www.w3.org/2000/svg"
 width="512.000000pt" height="512.000000pt" viewBox="0 0 512.000000 512.000000"
 preserveAspectRatio="xMidYMid meet">
<metadata>
Created by potrace 1.11, written by Peter Selinger 2001-2013
</metadata>
<g transform="translate(0.000000,512.000000) scale(0.100000,-0.100000)"
fill="#000000" stroke="none">
<path d="M2500 5107 c-46 -20 -85 -75 -134 -189 -27 -62 -62 -140 -77 -173
-15 -33 -79 -177 -142 -320 -63 -143 -126 -285 -140 -315 -13 -30 -59 -134
-102 -230 -42 -96 -92 -207 -111 -247 -19 -39 -34 -74 -34 -77 0 -3 -13 -34
-29 -68 -43 -95 -57 -128 -204 -458 -74 -168 -146 -330 -160 -360 -14 -30 -50
-111 -80 -180 -30 -69 -66 -150 -80 -180 -79 -176 -89 -204 -84 -239 8 -59 24
-87 63 -118 l37 -28 589 -3 588 -3 2 -902 c3 -890 3 -902 24 -937 39 -67 130
-95 206 -63 50 22 57 35 283 548 54 121 126 283 160 360 35 77 143 320 240
540 98 220 187 423 200 450 12 28 57 129 100 225 78 177 168 378 185 415 5 11
51 112 101 225 79 176 92 213 93 261 1 47 -4 62 -28 93 -25 34 -54 52 -96 61
-8 2 -270 4 -582 4 l-568 1 0 890 c0 952 1 929 -48 983 -34 38 -124 56 -172
34z"/>
</g>
</svg>
