<svg xmlns="http://www.w3.org/2000/svg" viewBox="0 0 61.41 61.45"><defs><style>.cls-1{fill:#fd9800;}.cls-2{fill:#fdc63a;}.cls-3{fill:#fff;}.cls-4{fill:#2c5871;}.cls-5{fill:#0f303f;}</style></defs><g id="Слой_2" data-name="Слой 2"><g id="Layer_1" data-name="Layer 1"><path class="cls-1" d="M52.82,0H30.7V61.45H52.82a8.59,8.59,0,0,0,8.59-8.59V8.59A8.59,8.59,0,0,0,52.82,0Z"/><path class="cls-2" d="M8.59,0A8.6,8.6,0,0,0,0,8.59V52.86a8.6,8.6,0,0,0,8.59,8.59H30.7V0Z"/><path class="cls-3" d="M52.82,58H8.59a5.16,5.16,0,0,1-5.15-5.15V8.59A5.16,5.16,0,0,1,8.59,3.44H52.82A5.16,5.16,0,0,1,58,8.59V52.86A5.16,5.16,0,0,1,52.82,58ZM8.59,5.16A3.44,3.44,0,0,0,5.15,8.59V52.86a3.44,3.44,0,0,0,3.44,3.43H52.82a3.44,3.44,0,0,0,3.44-3.43V8.59a3.44,3.44,0,0,0-3.44-3.43Z"/><path class="cls-1" d="M11.07,8.4A2.79,2.79,0,1,1,8.28,5.61,2.79,2.79,0,0,1,11.07,8.4Z"/><path class="cls-1" d="M11.07,53.35a2.79,2.79,0,1,1-2.79-2.78A2.79,2.79,0,0,1,11.07,53.35Z"/><path class="cls-2" d="M56.22,53.35a2.78,2.78,0,1,1-2.78-2.78A2.78,2.78,0,0,1,56.22,53.35Z"/><path class="cls-2" d="M56.22,8.4a2.78,2.78,0,1,1-2.78-2.79A2.78,2.78,0,0,1,56.22,8.4Z"/><path class="cls-3" d="M8.51,6.54V8.18h1.57V8.6H8.51v1.65H8.06V8.6H6.49V8.18H8.06V6.54Z"/><path class="cls-3" d="M8.51,51.5v1.64h1.57v.42H8.51v1.65H8.06V53.56H6.49v-.42H8.06V51.5Z"/><path class="cls-3" d="M53.67,51.5v1.64h1.57v.42H53.67v1.65h-.45V53.56H51.64v-.42h1.58V51.5Z"/><path class="cls-3" d="M53.67,6.54V8.18h1.57V8.6H53.67v1.65h-.45V8.6H51.64V8.18h1.58V6.54Z"/><rect class="cls-3" x="24.53" y="18.44" width="12.34" height="25.78"/><rect class="cls-4" x="27.11" y="21.02" width="7.19" height="10.31"/><rect class="cls-5" x="27.11" y="31.33" width="7.19" height="10.31"/></g></g></svg>