<svg xmlns="http://www.w3.org/2000/svg" viewBox="0 0 801 401"><defs><style>.cls-1,.cls-2,.cls-3,.cls-4,.cls-5,.cls-6{fill:none;}.cls-1,.cls-6{stroke:#000;}.cls-1,.cls-2,.cls-4,.cls-5,.cls-6,.cls-7{stroke-miterlimit:10;}.cls-1{opacity:0;}.cls-2{stroke:#ff1d25;}.cls-4,.cls-7{stroke:#ff931e;}.cls-5{stroke:#3fa9f5;}.cls-7{fill:#fcee21;}.cls-8{font-size:12px;font-family:Roboto-Regular, Roboto;}.cls-9{letter-spacing:-0.01em;}.cls-10{letter-spacing:-0.01em;}.cls-11{letter-spacing:-0.01em;}.cls-12{letter-spacing:-0.04em;}.cls-13{letter-spacing:-0.04em;}</style></defs><g id="Слой_2" data-name="Слой 2"><g id="Рамка"><rect class="cls-1" x="0.5" y="0.5" width="800" height="400"/></g><g id="Схема"><line class="cls-2" x1="81.5" y1="99.5" x2="81.5" y2="333.5"/><line class="cls-2" x1="90.5" y1="333.5" x2="81.5" y2="333.5"/><line class="cls-3" x1="90.99" y1="295.42" x2="135.5" y2="295.42"/><line class="cls-2" x1="81" y1="99" x2="387" y2="99"/><line class="cls-4" x1="90" y1="108" x2="765.5" y2="108"/><line class="cls-4" x1="99" y1="117" x2="756.5" y2="117"/><line class="cls-4" x1="90.5" y1="108" x2="90.5" y2="297.5"/><line class="cls-4" x1="99" y1="117" x2="99" y2="289"/><line class="cls-4" x1="90.5" y1="297.5" x2="162.5" y2="297.5"/><line class="cls-4" x1="162.5" y1="315.5" x2="162.5" y2="297.5"/><line class="cls-4" x1="99" y1="289" x2="171" y2="289"/><line class="cls-4" x1="171.5" y1="351.5" x2="171.5" y2="288.5"/><line class="cls-4" x1="162.5" y1="315.5" x2="144.5" y2="315.5"/><line class="cls-4" x1="171.5" y1="351.5" x2="142.79" y2="351.5"/><line class="cls-2" x1="387.5" y1="99.5" x2="387.5" y2="63.5"/><line class="cls-5" x1="396.5" y1="63.5" x2="396.5" y2="99.5"/><line class="cls-5" x1="405.5" y1="99.5" x2="396.5" y2="99.5"/><line class="cls-5" x1="405.5" y1="126.5" x2="405.5" y2="99.5"/><line class="cls-5" x1="396.5" y1="126.5" x2="405.5" y2="126.5"/><line class="cls-5" x1="396.5" y1="216.5" x2="396.5" y2="126.5"/><line class="cls-2" x1="414.5" y1="126.5" x2="414.5" y2="171.5"/><line class="cls-2" x1="450.5" y1="171.5" x2="414.5" y2="171.5"/><line class="cls-4" x1="396.5" y1="216.5" x2="405.5" y2="216.5"/><line class="cls-4" x1="441.5" y1="216.5" x2="450.5" y2="216.5"/><line class="cls-2" x1="450.5" y1="171.5" x2="450.5" y2="216.5"/><line class="cls-2" x1="414.5" y1="126.5" x2="747.5" y2="126.5"/><line class="cls-2" x1="747.5" y1="288.5" x2="747.5" y2="126.5"/><line class="cls-2" x1="675.5" y1="288.5" x2="747.5" y2="288.5"/><line class="cls-2" x1="675.5" y1="333.5" x2="675.5" y2="288.5"/><line class="cls-4" x1="756.5" y1="117.5" x2="756.5" y2="315.5"/><line class="cls-4" x1="765.5" y1="108.5" x2="765.5" y2="351.5"/><line class="cls-4" x1="738.5" y1="351.5" x2="765.5" y2="351.5"/><line class="cls-4" x1="738.5" y1="315.5" x2="756.5" y2="315.5"/><line class="cls-2" x1="675.5" y1="333.5" x2="684.5" y2="333.5"/><circle class="cls-2" cx="99.5" cy="333.5" r="9"/><circle class="cls-4" cx="135.5" cy="315.5" r="9"/><circle class="cls-4" cx="135.5" cy="351.5" r="9"/><circle class="cls-2" cx="693.5" cy="333.5" r="9"/><circle class="cls-4" cx="729.5" cy="315.5" r="9"/><circle class="cls-4" cx="729.5" cy="351.5" r="9"/><line class="cls-6" x1="108.5" y1="333.5" x2="135.5" y2="324.5"/><line class="cls-6" x1="702.5" y1="333.5" x2="729.5" y2="342.5"/><circle class="cls-7" cx="423.5" cy="216.5" r="18"/><circle class="cls-6" cx="391.75" cy="45.5" r="18"/><line class="cls-4" x1="410.77" y1="229.23" x2="436.21" y2="203.79"/><line class="cls-4" x1="410.77" y1="203.77" x2="436.23" y2="229.23"/><path class="cls-6" d="M383.09,48c1.49-3.79,3-4.88,4.29-5.06,3.31-.46,5.58,5.31,9.12,4.94,2-.21,3.55-2.36,4.59-4.47"/></g><g id="Текст"><text class="cls-8" transform="translate(383.44 91.87) rotate(-90)">Фаз</text><text class="cls-8" transform="translate(410.1 92.4) rotate(-90)">Н<tspan class="cls-9" x="8.55" y="0">о</tspan><tspan x="15.3" y="0">ль</tspan></text><text class="cls-8" transform="translate(26.79 29.56)">С<tspan class="cls-10" x="7.81" y="0">х</tspan><tspan x="13.64" y="0">ема пр</tspan><tspan class="cls-11" x="52.05" y="0">о</tspan><tspan class="cls-10" x="58.78" y="0">х</tspan><tspan class="cls-12" x="64.61" y="0">о</tspan><tspan x="71.03" y="0">дной выключ</tspan><tspan class="cls-9" x="147.83" y="0">а</tspan><tspan class="cls-13" x="154.27" y="0">т</tspan><tspan x="159.56" y="0">ель</tspan></text></g></g></svg>