<svg xmlns="http://www.w3.org/2000/svg" viewBox="0 0 42.36 68.17"><defs><style>.cls-1{fill:#fdc63a;}.cls-2{fill:#fd9800;}.cls-3{fill:#0f303f;}.cls-4{fill:#2c5871;}.cls-5{fill:#14b0bf;}.cls-6{fill:#6e583d;}</style></defs><g id="Слой_2" data-name="Слой 2"><g id="Layer_1" data-name="Layer 1"><path class="cls-1" d="M21.26,0C9.56,0,.05,9.81,0,22c0,8.44,5.41,12.48,9.28,19.25,2,3.46,1.81,16.37,1.81,16.37a4.58,4.58,0,0,0,4.47,4.69l5.48,0L21.26,0Z"/><path class="cls-2" d="M42.36,22.15C42.4,10,33,0,21.26,0L21,62.33l5.48,0A4.58,4.58,0,0,0,31,57.69S31,44.65,33,41.2C36.86,34.46,42.33,30.58,42.36,22.15Z"/><path class="cls-3" d="M17.27,53.07a5.36,5.36,0,0,1,7.6,0l2.95,3a5.38,5.38,0,0,1,0,7.6l-3,3a5.36,5.36,0,0,1-7.59,0l-3-3a5.38,5.38,0,0,1,0-7.61Z"/><path class="cls-4" d="M33.27,60.13c0,1.27-1.57,2.29-3.5,2.28l-17.46-.06c-1.93,0-3.49-1-3.48-2.31h0c0-1.27,1.57-2.29,3.49-2.28l17.47.06c1.92,0,3.48,1,3.48,2.31Z"/><path class="cls-5" d="M33.28,55.83c0,1.27-1.57,2.29-3.5,2.28l-17.46-.06c-1.92,0-3.48-1-3.48-2.31h0c0-1.27,1.57-2.29,3.5-2.28l17.46.06c1.93,0,3.49,1,3.48,2.31Z"/><path class="cls-3" d="M33.3,51.53c0,1.26-1.57,2.29-3.5,2.28l-17.46-.06c-1.93,0-3.49-1-3.48-2.31h0c0-1.27,1.57-2.29,3.5-2.28l17.46.06c1.92,0,3.48,1,3.48,2.31Z"/><path class="cls-6" d="M33.32,47.22c0,1.27-1.58,2.3-3.51,2.29l-17.46-.06c-1.92,0-3.49-1-3.48-2.31h0c0-1.27,1.57-2.29,3.5-2.29l17.46.07c1.93,0,3.49,1,3.49,2.3Z"/></g></g></svg>