<svg xmlns="http://www.w3.org/2000/svg" viewBox="0 0 32.41 67.83"><defs><style>.cls-1{fill:#2c5871;}.cls-2{fill:#0f303f;}.cls-3{fill:#d9d5ce;}.cls-4{fill:#908f8b;}.cls-5{fill:#9fb603;}.cls-6{fill:#fd9800;}</style></defs><g id="Слой_2" data-name="Слой 2"><g id="Layer_1" data-name="Layer 1"><rect class="cls-1" x="9.03" y="38.05" width="1.92" height="3.7"/><rect class="cls-2" x="22" y="38.05" width="1.92" height="3.7"/><path class="cls-2" d="M13.5,55.91a4.22,4.22,0,0,1,6,0l2.33,2.34a4.24,4.24,0,0,1,0,6l-2.34,2.32a4.22,4.22,0,0,1-6,0l-2.33-2.34a4.25,4.25,0,0,1,0-6Z"/><path class="cls-3" d="M4.28,41.75V52.49c0,5.93,5.46,10.74,12.2,10.74V41.75Z"/><path class="cls-4" d="M16.48,41.75V63.23c6.73,0,12.2-4.81,12.2-10.74V41.75Z"/><path class="cls-5" d="M30.22,40.24h-28a2.19,2.19,0,0,1,0-4.37h28a2.19,2.19,0,1,1,0,4.37Z"/><path class="cls-5" d="M28.64,33.71H3.77a2.06,2.06,0,0,1,0-4.12H28.64a2.06,2.06,0,0,1,0,4.12Z"/><path class="cls-5" d="M28.36,27.28H4.05a2,2,0,1,1,0-4.08H28.36a2,2,0,0,1,0,4.08Z"/><path class="cls-5" d="M27.58,20.8H4.83a2,2,0,1,1,0-3.94H27.58a2,2,0,1,1,0,3.94Z"/><path class="cls-6" d="M26,14.26H6.38a1.83,1.83,0,1,1,0-3.66H26a1.83,1.83,0,0,1,0,3.66Z"/><path class="cls-6" d="M23.38,7.58H9A1.57,1.57,0,1,1,9,4.45H23.38a1.57,1.57,0,0,1,0,3.13Z"/><path class="cls-6" d="M19,2H13.38a1,1,0,0,1,0-2H19a1,1,0,1,1,0,2Z"/></g></g></svg>