<svg xmlns="http://www.w3.org/2000/svg" viewBox="0 0 801 401"><defs><style>.cls-1,.cls-11,.cls-13,.cls-14,.cls-15{fill:none;}.cls-1{stroke:#000;opacity:0;}.cls-1,.cls-11,.cls-12,.cls-13,.cls-14,.cls-15{stroke-miterlimit:10;}.cls-2{font-size:10px;font-family:Roboto-Light, Roboto;font-weight:300;}.cls-2,.cls-4{fill:#6a4c93;}.cls-3{letter-spacing:-0.01em;}.cls-4{font-size:14px;font-family:Roboto-Bold, Roboto;font-weight:700;}.cls-5{letter-spacing:-0.01em;}.cls-6{letter-spacing:-0.01em;}.cls-7{letter-spacing:-0.02em;}.cls-8{letter-spacing:-0.04em;}.cls-9{letter-spacing:-0.01em;}.cls-10{letter-spacing:-0.03em;}.cls-11{stroke:#ff595e;}.cls-11,.cls-12,.cls-13,.cls-14,.cls-15{stroke-width:2px;}.cls-12{fill:#2c3e50;}.cls-12,.cls-14{stroke:#6a4c93;}.cls-13{stroke:#ffca3a;}.cls-15{stroke:#1982c4;}</style></defs><g id="Слой_2" data-name="Слой 2"><g id="Рамка"><rect class="cls-1" x="0.5" y="0.5" width="800" height="400"/></g><g id="Текст"><text class="cls-2" transform="translate(368.71 90.5) rotate(-90)">Фаза</text><text class="cls-2" transform="translate(413 92.26) rotate(-90)">Н<tspan class="cls-3" x="7.08" y="0">о</tspan><tspan x="12.6" y="0">ль</tspan></text><text class="cls-4" transform="translate(26.79 31.06)">С<tspan class="cls-5" x="9.16" y="0">х</tspan><tspan x="16.15" y="0">ема пр</tspan><tspan class="cls-6" x="61.16" y="0">о</tspan><tspan class="cls-7" x="68.93" y="0">х</tspan><tspan class="cls-8" x="75.78" y="0">о</tspan><tspan class="cls-9" x="83.21" y="0">д</tspan><tspan x="91.92" y="0">ной выключ</tspan><tspan class="cls-3" x="173.68" y="0">а</tspan><tspan class="cls-10" x="181.08" y="0">т</tspan><tspan x="187.77" y="0">ель</tspan></text></g><g id="Фаза_1" data-name="Фаза 1"><path class="cls-11" d="M90.5,333.5h-5a4,4,0,0,1-4-4v-226a4,4,0,0,1,4-4h289a4,4,0,0,0,4-4v-23"/><line class="cls-12" x1="99.5" y1="333.5" x2="113.5" y2="329"/></g><g id="Транзит_1" data-name="Транзит 1"><path class="cls-13" d="M117.5,324.44l5,0a4,4,0,0,0,4-4v-10a4,4,0,0,0-4-4h-28a4,4,0,0,1-4-4v-190a4,4,0,0,1,4-4h667a4,4,0,0,1,4,4v217a4,4,0,0,1-4,4h-14"/></g><g id="Транзит_2" data-name="Транзит 2"><path class="cls-13" d="M747.5,315.5h5a4,4,0,0,0,4-4v-190a4,4,0,0,0-4-4h-649a4,4,0,0,0-4,4v172a4,4,0,0,0,4,4h28a4,4,0,0,1,4,4v37a4,4,0,0,1-4,4h-14"/></g><g id="Фаза_2" data-name="Фаза 2"><path class="cls-11" d="M720.5,324.5h-5a4,4,0,0,1-4-4v-19a4,4,0,0,1,4-4h28a4,4,0,0,0,4-4v-163a4,4,0,0,0-4-4h-307a4,4,0,0,0-4,4v82a4,4,0,0,1-4,4h-5"/><line class="cls-14" x1="729.5" y1="324.5" x2="743" y2="329"/></g><g id="Ноль_1" data-name="Ноль 1"><path class="cls-15" d="M405.5,216.5h-7a2,2,0,0,1-2-2v-86a2,2,0,0,1,2-2h5a2,2,0,0,0,2-2v-23a2,2,0,0,0-2-2h-5a2,2,0,0,1-2-2v-25"/><circle class="cls-15" cx="396.5" cy="68" r="4.5"/><circle class="cls-11" cx="378.5" cy="68" r="4.5"/></g><g id="Круги"><path class="cls-14" d="M392.71,45.5v1c0,.53-.9,1-2,1H389.5a2,2,0,0,1-2-1.9,2,2,0,0,0-2-1.9h-.9c-1.1,0-2,.42-2,.94v.93"/><path class="cls-14" d="M387.5,36.5a9,9,0,0,1,9,9h0a9,9,0,0,1-9,9h0a9,9,0,0,1-9-9h0a9,9,0,0,1,9-9Z"/><circle class="cls-11" cx="95" cy="333.5" r="4.5"/><circle class="cls-13" cx="113" cy="324.44" r="4.5"/><circle class="cls-13" cx="113" cy="342.5" r="4.5"/><circle class="cls-11" cx="725" cy="324.5" r="4.5"/><circle class="cls-13" cx="743" cy="315.5" r="4.5"/><circle class="cls-13" cx="743" cy="333.5" r="4.5"/><path class="cls-14" d="M414.5,207.5a9,9,0,0,1,9,9h0a9,9,0,0,1-9,9h0a9,9,0,0,1-9-9h0a9,9,0,0,1,9-9Z"/><line class="cls-14" x1="421.09" y1="209.74" x2="407.74" y2="223.09"/><line class="cls-14" x1="407.74" y1="209.74" x2="421.09" y2="223.09"/></g></g></svg>