<svg xmlns="http://www.w3.org/2000/svg" viewBox="0 0 63.44 62.31"><defs><style>.cls-1{fill:#fd9800;}.cls-2{fill:#908f8b;}.cls-3{fill:#9b7f56;}.cls-4{fill:#7a5125;}</style></defs><g id="Слой_2" data-name="Слой 2"><g id="Layer_1" data-name="Layer 1"><path class="cls-1" d="M61.78,62.31a1.66,1.66,0,0,1-1.38-.73l-10.16-15L42.57,61.42a1.67,1.67,0,0,1-1.48.89H32a1.66,1.66,0,0,1-1.66-1.66V46.54a1.66,1.66,0,1,1,3.32,0V59h6.44l8.49-16.44a1.63,1.63,0,0,1,1.37-.89,1.65,1.65,0,0,1,1.48.72l8.7,12.85V3.33H3.32V59h11.2a1.66,1.66,0,0,1,0,3.32H1.66A1.66,1.66,0,0,1,0,60.65v-59A1.66,1.66,0,0,1,1.66,0H61.78a1.66,1.66,0,0,1,1.66,1.66v59a1.65,1.65,0,0,1-1.66,1.66Z"/><rect class="cls-2" x="23.46" y="8.55" width="3.44" height="13.89"/><rect class="cls-2" x="37.07" y="8.55" width="3.44" height="13.89"/><path class="cls-3" d="M18.29,22.44V34.49c0,6.65,6.13,12,13.69,12V22.44Z"/><path class="cls-4" d="M32,22.44v24.1c7.56,0,13.69-5.4,13.69-12v-12Z"/></g></g></svg>